<svg xmlns="http://www.w3.org/2000/svg" viewBox="0 0 820 280" width="820" height="280" style="font-family:'Segoe UI',system-ui,Arial,sans-serif;background:#f8fafc;">
<rect width="820" height="280" fill="#f8fafc" rx="10"/>
<rect x="180" y="50" width="610" height="190" fill="white" stroke="#e2e8f0" stroke-width="1" rx="3"/>
<text x="410" y="30" text-anchor="middle" font-size="13" font-weight="700" fill="#1e293b">Computational Power Requirement (Hardware Footprint)</text>

<!-- Grid lines for aesthetic -->
<line x1="180" y1="50" x2="180" y2="240" stroke="#e2e8f0" stroke-width="1"/>
<line x1="330" y1="50" x2="330" y2="240" stroke="#f1f5f9" stroke-width="2"/>
<line x1="480" y1="50" x2="480" y2="240" stroke="#f1f5f9" stroke-width="2"/>
<line x1="630" y1="50" x2="630" y2="240" stroke="#f1f5f9" stroke-width="2"/>

<text x="165" y="80" text-anchor="end" font-size="12" fill="#475569" font-weight="600">Frontier Cloud APIs</text>
<text x="165" y="96" text-anchor="end" font-size="10" fill="#94a3b8">GPT-4o, Claude</text>
<rect x="180" y="68" width="560" height="26" fill="#cbd5e1" rx="3"/>
<text x="750" y="85" font-size="11" fill="#64748b" font-weight="600">Massive Datacenter Cluster</text>

<text x="165" y="128" text-anchor="end" font-size="12" fill="#475569" font-weight="600">Llama 3.1 70B</text>
<text x="165" y="144" text-anchor="end" font-size="10" fill="#94a3b8">Standard Server Base</text>
<rect x="180" y="116" width="200" height="26" fill="#94a3b8" rx="3"/>
<text x="390" y="133" font-size="11" fill="#64748b" font-weight="600">Enterprise Server (~40GB VRAM)</text>

<text x="165" y="176" text-anchor="end" font-size="12" fill="#16a34a" font-weight="600">Shezzi (Full System)</text>
<text x="165" y="192" text-anchor="end" font-size="10" fill="#22c55e">Multi-Model Ensemble</text>
<rect x="180" y="164" width="40" height="26" fill="#22c55e" rx="3"/>
<text x="230" y="181" font-size="11" fill="#16a34a" font-weight="600">Consumer GPU (~8GB VRAM)</text>

<text x="165" y="224" text-anchor="end" font-size="12" fill="#2563eb" font-weight="600">Shezzi (Standard)</text>
<text x="165" y="240" text-anchor="end" font-size="10" fill="#3b82f6">Single Query</text>
<rect x="180" y="212" width="10" height="26" fill="#3b82f6" rx="3"/>
<text x="200" y="229" font-size="11" fill="#2563eb" font-weight="600">Minimal CPU/GPU (~1.5GB VRAM)</text>

</svg>
