<svg xmlns="http://www.w3.org/2000/svg" viewBox="0 0 820 360" width="820" height="360" style="font-family:'Segoe UI',system-ui,Arial,sans-serif;background:#f8fafc;">
<rect width="820" height="360" fill="#f8fafc" rx="10"/>
<rect x="58" y="40" width="607" height="248" fill="white" stroke="#e2e8f0" stroke-width="1" rx="3"/>
<text x="361.5" y="26" text-anchor="middle" font-size="13" font-weight="700" fill="#1e293b">Shezzi Accuracy Growth vs Frontier Models (MMLU)</text>
<text x="13" y="164.0" text-anchor="middle" font-size="10" fill="#64748b" transform="rotate(-90 13 164.0)">MMLU %</text>
<line x1="58" y1="265.5" x2="665" y2="265.5" stroke="#f1f5f9" stroke-width="1.2"/>
<text x="52" y="269.5" text-anchor="end" font-size="10" fill="#94a3b8">72%</text>
<line x1="58" y1="242.9" x2="665" y2="242.9" stroke="#f1f5f9" stroke-width="1.2"/>
<text x="52" y="246.9" text-anchor="end" font-size="10" fill="#94a3b8">74%</text>
<line x1="58" y1="220.4" x2="665" y2="220.4" stroke="#f1f5f9" stroke-width="1.2"/>
<text x="52" y="224.4" text-anchor="end" font-size="10" fill="#94a3b8">76%</text>
<line x1="58" y1="197.8" x2="665" y2="197.8" stroke="#f1f5f9" stroke-width="1.2"/>
<text x="52" y="201.8" text-anchor="end" font-size="10" fill="#94a3b8">78%</text>
<line x1="58" y1="175.3" x2="665" y2="175.3" stroke="#f1f5f9" stroke-width="1.2"/>
<text x="52" y="179.3" text-anchor="end" font-size="10" fill="#94a3b8">80%</text>
<line x1="58" y1="152.7" x2="665" y2="152.7" stroke="#f1f5f9" stroke-width="1.2"/>
<text x="52" y="156.7" text-anchor="end" font-size="10" fill="#94a3b8">82%</text>
<line x1="58" y1="130.2" x2="665" y2="130.2" stroke="#f1f5f9" stroke-width="1.2"/>
<text x="52" y="134.2" text-anchor="end" font-size="10" fill="#94a3b8">84%</text>
<line x1="58" y1="107.6" x2="665" y2="107.6" stroke="#f1f5f9" stroke-width="1.2"/>
<text x="52" y="111.6" text-anchor="end" font-size="10" fill="#94a3b8">86%</text>
<line x1="58" y1="85.1" x2="665" y2="85.1" stroke="#f1f5f9" stroke-width="1.2"/>
<text x="52" y="89.1" text-anchor="end" font-size="10" fill="#94a3b8">88%</text>
<line x1="58" y1="62.5" x2="665" y2="62.5" stroke="#f1f5f9" stroke-width="1.2"/>
<text x="52" y="66.5" text-anchor="end" font-size="10" fill="#94a3b8">90%</text>
<line x1="58.0" y1="288" x2="58.0" y2="292" stroke="#374151" stroke-width="1"/>
<text x="58.0" y="303.0" text-anchor="middle" font-size="9" fill="#374151">Base</text>
<text x="58.0" y="315.0" text-anchor="middle" font-size="9" fill="#374151">R1-7B</text>
<line x1="133.9" y1="288" x2="133.9" y2="292" stroke="#374151" stroke-width="1"/>
<text x="133.9" y="303.0" text-anchor="middle" font-size="9" fill="#374151">Identity</text>
<text x="133.9" y="315.0" text-anchor="middle" font-size="9" fill="#374151">baked</text>
<line x1="209.8" y1="288" x2="209.8" y2="292" stroke="#cbd5e1" stroke-width="1"/>
<text x="209.8" y="303.0" text-anchor="middle" font-size="9" fill="#cbd5e1">Lobes</text>
<text x="209.8" y="315.0" text-anchor="middle" font-size="9" fill="#cbd5e1">v1</text>
<line x1="285.6" y1="288" x2="285.6" y2="292" stroke="#cbd5e1" stroke-width="1"/>
<text x="285.6" y="303.0" text-anchor="middle" font-size="9" fill="#cbd5e1">Lobes</text>
<text x="285.6" y="315.0" text-anchor="middle" font-size="9" fill="#cbd5e1">v2</text>
<line x1="361.5" y1="288" x2="361.5" y2="292" stroke="#cbd5e1" stroke-width="1"/>
<text x="361.5" y="303.0" text-anchor="middle" font-size="9" fill="#cbd5e1">Block A</text>
<text x="361.5" y="315.0" text-anchor="middle" font-size="9" fill="#cbd5e1">DPO</text>
<line x1="437.4" y1="288" x2="437.4" y2="292" stroke="#cbd5e1" stroke-width="1"/>
<text x="437.4" y="303.0" text-anchor="middle" font-size="9" fill="#cbd5e1">KM</text>
<text x="437.4" y="315.0" text-anchor="middle" font-size="9" fill="#cbd5e1">20 slots</text>
<line x1="513.2" y1="288" x2="513.2" y2="292" stroke="#cbd5e1" stroke-width="1"/>
<text x="513.2" y="303.0" text-anchor="middle" font-size="9" fill="#cbd5e1">KM</text>
<text x="513.2" y="315.0" text-anchor="middle" font-size="9" fill="#cbd5e1">40 slots</text>
<line x1="589.1" y1="288" x2="589.1" y2="292" stroke="#cbd5e1" stroke-width="1"/>
<text x="589.1" y="303.0" text-anchor="middle" font-size="9" fill="#cbd5e1">KM</text>
<text x="589.1" y="315.0" text-anchor="middle" font-size="9" fill="#cbd5e1">50 slots</text>
<line x1="665.0" y1="288" x2="665.0" y2="292" stroke="#cbd5e1" stroke-width="1"/>
<text x="665.0" y="303.0" text-anchor="middle" font-size="9" fill="#cbd5e1">Lobes</text>
<text x="665.0" y="315.0" text-anchor="middle" font-size="9" fill="#cbd5e1">v3</text>
<line x1="58" y1="77.2" x2="665" y2="77.2" stroke="#ea580c" stroke-width="1.4" stroke-dasharray="6,4" opacity="0.75"/>
<text x="673" y="81.2" font-size="10" fill="#ea580c">GPT-4o</text>
<line x1="58" y1="79.5" x2="665" y2="79.5" stroke="#b45309" stroke-width="1.4" stroke-dasharray="6,4" opacity="0.75"/>
<text x="673" y="83.5" font-size="10" fill="#b45309">DeepSeek-V3</text>
<line x1="58" y1="98.6" x2="665" y2="98.6" stroke="#7c3aed" stroke-width="1.4" stroke-dasharray="6,4" opacity="0.75"/>
<text x="673" y="102.6" font-size="10" fill="#7c3aed">Claude Sonnet</text>
<line x1="58" y1="146.0" x2="665" y2="146.0" stroke="#6b7280" stroke-width="1.4" stroke-dasharray="6,4" opacity="0.75"/>
<text x="673" y="150.0" font-size="10" fill="#6b7280">Llama 3.1 70B</text>
<polygon points="133.9,254.2 209.8,242.9 285.6,231.6 361.5,226.0 437.4,214.7 513.2,203.5 589.1,186.5 665.0,164.0 665.0,288.0 133.9,288.0" fill="#22c55e" opacity="0.07"/>
<polygon points="133.9,102.0 209.8,98.6 285.6,96.4 361.5,94.1 437.4,90.7 513.2,87.3 589.1,85.1 665.0,79.5 665.0,288.0 133.9,288.0" fill="#3b82f6" opacity="0.07"/>
<polyline points="133.9,254.2 209.8,242.9 285.6,231.6 361.5,226.0 437.4,214.7 513.2,203.5 589.1,186.5 665.0,164.0" fill="none" stroke="#22c55e" stroke-width="1.5" stroke-dasharray="4,3" opacity="0.35"/>
<polyline points="133.9,102.0 209.8,98.6 285.6,96.4 361.5,94.1 437.4,90.7 513.2,87.3 589.1,85.1 665.0,79.5" fill="none" stroke="#3b82f6" stroke-width="1.5" stroke-dasharray="4,3" opacity="0.35"/>
<text x="399.4" y="274.5" text-anchor="middle" font-size="9" fill="#94a3b8" font-style="italic">projected</text>
<polygon points="58.0,102.0 133.9,102.0 133.9,288.0 58.0,288.0" fill="#3b82f6" opacity="0.13"/>
<polygon points="58.0,254.2 133.9,254.2 133.9,288.0 58.0,288.0" fill="#22c55e" opacity="0.20"/>
<polyline points="58.0,102.0 133.9,102.0" fill="none" stroke="#2563eb" stroke-width="2.2"/>
<polyline points="58.0,254.2 133.9,254.2" fill="none" stroke="#16a34a" stroke-width="2.2"/>
<line x1="133.9" y1="40" x2="133.9" y2="288" stroke="#64748b" stroke-width="1" stroke-dasharray="3,3"/>
<text x="133.9" y="35.0" text-anchor="middle" font-size="9" fill="#64748b">▼ now</text>
<circle cx="133.9" cy="254.2" r="5" fill="#16a34a" stroke="white" stroke-width="1.5"/>
<circle cx="133.9" cy="102.0" r="5" fill="#2563eb" stroke="white" stroke-width="1.5"/>
<text x="141.9" y="250.2" font-size="10" fill="#16a34a" font-weight="700">73.0%</text>
<text x="141.9" y="98.0" font-size="10" fill="#2563eb" font-weight="700">86.5%</text>
<rect x="63" y="209" width="128" height="60" fill="white" stroke="#e2e8f0" stroke-width="1" rx="4" opacity="0.92"/>
<line x1="68" y1="222.0" x2="90" y2="222.0" stroke="#16a34a" stroke-width="2" />
<circle cx="79.0" cy="222.0" r="3" fill="#16a34a"/>
<text x="96" y="226.0" font-size="10" fill="#374151">Shezzi local</text>
<line x1="68" y1="240.0" x2="90" y2="240.0" stroke="#2563eb" stroke-width="2" />
<circle cx="79.0" cy="240.0" r="3" fill="#2563eb"/>
<text x="96" y="244.0" font-size="10" fill="#374151">Shezzi cloud</text>
<line x1="68" y1="258.0" x2="90" y2="258.0" stroke="#6b7280" stroke-width="2" stroke-dasharray="5,3"/>
<text x="96" y="262.0" font-size="10" fill="#374151">Frontier models</text>
</svg>